<svg width="836" height="418" viewBox="0 0 836 418" fill="none" xmlns="http://www.w3.org/2000/svg">
    <rect width="100%" height="100%" fill="black"/>
  <g opacity="0.26">
    <path opacity="0.8" d="M627 627C742.428 511.573 742.428 324.428 627 209C511.573 93.5725 324.427 93.5725 209 209C93.5725 324.428 93.5725 511.572 209 627C324.428 742.428 511.572 742.428 627 627Z" stroke="white" stroke-width="0.5" stroke-miterlimit="10"/>
    <path opacity="0.8" d="M616.473 616.473C726.087 506.859 726.087 329.141 616.473 219.527C506.86 109.914 329.141 109.914 219.527 219.527C109.914 329.141 109.914 506.859 219.527 616.473C329.141 726.086 506.86 726.086 616.473 616.473Z" stroke="white" stroke-width="0.6562" stroke-miterlimit="10"/>
    <path opacity="0.8" d="M418.002 683.773C564.787 683.773 683.779 564.781 683.779 417.996C683.779 271.211 564.787 152.219 418.002 152.219C271.218 152.219 152.225 271.211 152.225 417.996C152.225 564.781 271.218 683.773 418.002 683.773Z" stroke="white" stroke-width="0.8125" stroke-miterlimit="10"/>
    <path opacity="0.8" d="M418.003 668.885C556.566 668.885 668.893 556.558 668.893 417.996C668.893 279.434 556.566 167.107 418.003 167.107C279.441 167.107 167.114 279.434 167.114 417.996C167.114 556.558 279.441 668.885 418.003 668.885Z" stroke="white" stroke-width="0.9688" stroke-miterlimit="10"/>
    <path opacity="0.8" d="M584.877 584.877C677.041 492.713 677.041 343.287 584.877 251.123C492.714 158.96 343.287 158.96 251.124 251.123C158.96 343.287 158.96 492.713 251.124 584.877C343.287 677.04 492.714 677.04 584.877 584.877Z" stroke="white" stroke-width="1.125" stroke-miterlimit="10"/>
    <path opacity="0.8" d="M574.351 574.35C660.7 488 660.7 348 574.351 261.65C488.001 175.301 348.001 175.301 261.651 261.65C175.302 348 175.302 488 261.651 574.35C348.001 660.699 488.001 660.699 574.351 574.35Z" stroke="white" stroke-width="1.2812" stroke-miterlimit="10"/>
    <path opacity="0.8" d="M563.822 563.823C644.358 483.287 644.358 352.713 563.822 272.177C483.286 191.642 352.712 191.642 272.177 272.177C191.641 352.713 191.641 483.287 272.177 563.823C352.712 644.358 483.286 644.358 563.822 563.823Z" stroke="white" stroke-width="1.4375" stroke-miterlimit="10"/>
    <path opacity="0.8" d="M553.295 553.296C628.017 478.574 628.017 357.426 553.295 282.705C478.574 207.983 357.426 207.983 282.704 282.705C207.983 357.426 207.983 478.574 282.704 553.296C357.426 628.017 478.574 628.017 553.295 553.296Z" stroke="white" stroke-width="1.5938" stroke-miterlimit="10"/>
    <path opacity="0.8" d="M592.234 446.149C607.758 349.945 542.354 259.372 446.151 243.848C349.947 228.324 259.374 293.728 243.85 389.932C228.326 486.136 293.73 576.709 389.933 592.233C486.137 607.757 576.71 542.353 592.234 446.149Z" stroke="white" stroke-width="1.75" stroke-miterlimit="10"/>
    <path opacity="0.8" d="M418.003 579.559C507.231 579.559 579.566 507.225 579.566 417.996C579.566 328.767 507.231 256.433 418.003 256.433C328.774 256.433 256.439 328.767 256.439 417.996C256.439 507.225 328.774 579.559 418.003 579.559Z" stroke="white" stroke-width="1.9062" stroke-miterlimit="10"/>
    <path opacity="0.8" d="M521.713 521.714C578.993 464.434 578.993 371.566 521.713 314.286C464.433 257.006 371.565 257.006 314.285 314.286C257.005 371.566 257.005 464.434 314.285 521.714C371.565 578.994 464.433 578.994 521.713 521.714Z" stroke="white" stroke-width="2.0625" stroke-miterlimit="10"/>
    <path opacity="0.8" d="M511.173 511.173C562.63 459.715 562.63 376.286 511.173 324.828C459.715 273.37 376.286 273.37 324.828 324.828C273.371 376.286 273.371 459.715 324.828 511.173C376.286 562.63 459.715 562.63 511.173 511.173Z" stroke="white" stroke-width="2.2188" stroke-miterlimit="10"/>
    <path opacity="0.8" d="M500.646 500.645C546.29 455.001 546.29 380.999 500.646 335.355C455.002 289.711 380.999 289.711 335.356 335.355C289.712 380.999 289.712 455.002 335.356 500.645C380.999 546.289 455.002 546.289 500.646 500.645Z" stroke="white" stroke-width="2.375" stroke-miterlimit="10"/>
    <path opacity="0.8" d="M490.117 490.118C529.947 450.288 529.947 385.712 490.117 345.882C450.288 306.052 385.711 306.052 345.881 345.882C306.052 385.712 306.052 450.288 345.881 490.118C385.711 529.948 450.288 529.948 490.117 490.118Z" stroke="white" stroke-width="2.5312" stroke-miterlimit="10"/>
    <path opacity="0.8" d="M504.478 428.194C510.116 380.42 475.958 337.121 428.184 331.483C380.41 325.845 337.111 360.003 331.473 407.777C325.835 455.551 359.993 498.85 407.767 504.488C455.541 510.126 498.84 475.968 504.478 428.194Z" stroke="white" stroke-width="2.6875" stroke-miterlimit="10"/>
    <path opacity="0.8" d="M418.003 490.212C457.887 490.212 490.219 457.88 490.219 417.996C490.219 378.112 457.887 345.78 418.003 345.78C378.12 345.78 345.787 378.112 345.787 417.996C345.787 457.88 378.12 490.212 418.003 490.212Z" stroke="white" stroke-width="2.8438" stroke-miterlimit="10"/>
    <path opacity="0.8" d="M475.193 422.605C477.707 391.045 454.16 363.423 422.6 360.909C391.04 358.395 363.417 381.941 360.903 413.502C358.389 445.062 381.936 472.684 413.496 475.198C445.056 477.712 472.679 454.165 475.193 422.605Z" stroke="white" stroke-width="3" stroke-miterlimit="10"/>
  </g>
</svg>
