<svg width="1440" height="795" viewBox="0 0 1440 795" fill="none" xmlns="http://www.w3.org/2000/svg">
    <rect width="129.163" height="403.635" transform="matrix(-0.5 -0.866025 -0.866025 0.5 304.895 -90.2205)" fill="url(#paint0_linear_1116_12578)"/>
    <rect x="185.968" y="147.625" width="129.163" height="575.757" transform="rotate(-120 185.968 147.625)" fill="url(#paint1_linear_1116_12578)"/>
    <circle cx="153.679" cy="91.6954" r="64.5816" transform="rotate(-120 153.679 91.6954)" fill="#1A1A1A"/>
    <g filter="url(#filter0_f_1116_12578)">
        <circle cx="153.679" cy="91.6954" r="63.5816" transform="rotate(-120 153.679 91.6954)" stroke="black" stroke-width="2"/>
    </g>
    <rect width="129.163" height="403.635" transform="matrix(-0.5 -0.866025 -0.866025 0.5 451.412 163.555)" fill="url(#paint2_linear_1116_12578)"/>
    <circle r="64.5816" transform="matrix(-0.5 -0.866025 -0.866025 0.5 419.122 107.625)" fill="#1A1A1A"/>
    <g filter="url(#filter1_f_1116_12578)">
        <circle r="63.5816" transform="matrix(-0.5 -0.866025 -0.866025 0.5 419.122 107.625)" stroke="black" stroke-width="2"/>
    </g>
    <rect x="332.485" y="401.399" width="129.163" height="575.757" transform="rotate(-120 332.485 401.399)" fill="url(#paint3_linear_1116_12578)"/>
    <circle cx="300.195" cy="345.47" r="64.5816" transform="rotate(-120 300.195 345.47)" fill="#1A1A1A"/>
    <g filter="url(#filter2_f_1116_12578)">
        <circle cx="300.195" cy="345.47" r="63.5816" transform="rotate(-120 300.195 345.47)" stroke="black" stroke-width="2"/>
    </g>
    <rect width="129.163" height="589.258" transform="matrix(-0.5 -0.866025 -0.866025 0.5 597.927 417.33)" fill="url(#paint4_linear_1116_12578)"/>
    <circle r="64.5816" transform="matrix(-0.5 -0.866025 -0.866025 0.5 565.637 361.4)" fill="#1A1A1A"/>
    <g filter="url(#filter3_f_1116_12578)">
        <circle r="63.5816" transform="matrix(-0.5 -0.866025 -0.866025 0.5 565.637 361.4)" stroke="black" stroke-width="2"/>
    </g>
    <rect x="479.003" y="655.175" width="129.163" height="575.757" transform="rotate(-120 479.003 655.175)" fill="url(#paint5_linear_1116_12578)"/>
    <circle cx="446.713" cy="599.245" r="64.5816" transform="rotate(-120 446.713 599.245)" fill="#1A1A1A"/>
    <g filter="url(#filter4_f_1116_12578)">
        <circle cx="446.713" cy="599.245" r="63.5816" transform="rotate(-120 446.713 599.245)" stroke="black" stroke-width="2"/>
    </g>
    <defs>
        <filter id="filter0_f_1116_12578" x="69.0862" y="7.10303" width="169.185" height="169.185" filterUnits="userSpaceOnUse" color-interpolation-filters="sRGB">
            <feFlood flood-opacity="0" result="BackgroundImageFix"/>
            <feBlend mode="normal" in="SourceGraphic" in2="BackgroundImageFix" result="shape"/>
            <feGaussianBlur stdDeviation="10" result="effect1_foregroundBlur_1116_12578"/>
        </filter>
        <filter id="filter1_f_1116_12578" x="334.529" y="23.033" width="169.185" height="169.185" filterUnits="userSpaceOnUse" color-interpolation-filters="sRGB">
            <feFlood flood-opacity="0" result="BackgroundImageFix"/>
            <feBlend mode="normal" in="SourceGraphic" in2="BackgroundImageFix" result="shape"/>
            <feGaussianBlur stdDeviation="10" result="effect1_foregroundBlur_1116_12578"/>
        </filter>
        <filter id="filter2_f_1116_12578" x="215.603" y="260.878" width="169.185" height="169.185" filterUnits="userSpaceOnUse" color-interpolation-filters="sRGB">
            <feFlood flood-opacity="0" result="BackgroundImageFix"/>
            <feBlend mode="normal" in="SourceGraphic" in2="BackgroundImageFix" result="shape"/>
            <feGaussianBlur stdDeviation="10" result="effect1_foregroundBlur_1116_12578"/>
        </filter>
        <filter id="filter3_f_1116_12578" x="481.044" y="276.808" width="169.185" height="169.185" filterUnits="userSpaceOnUse" color-interpolation-filters="sRGB">
            <feFlood flood-opacity="0" result="BackgroundImageFix"/>
            <feBlend mode="normal" in="SourceGraphic" in2="BackgroundImageFix" result="shape"/>
            <feGaussianBlur stdDeviation="10" result="effect1_foregroundBlur_1116_12578"/>
        </filter>
        <filter id="filter4_f_1116_12578" x="362.121" y="514.653" width="169.185" height="169.185" filterUnits="userSpaceOnUse" color-interpolation-filters="sRGB">
            <feFlood flood-opacity="0" result="BackgroundImageFix"/>
            <feBlend mode="normal" in="SourceGraphic" in2="BackgroundImageFix" result="shape"/>
            <feGaussianBlur stdDeviation="10" result="effect1_foregroundBlur_1116_12578"/>
        </filter>
        <linearGradient id="paint0_linear_1116_12578" x1="64.5816" y1="0" x2="64.5816" y2="403.635" gradientUnits="userSpaceOnUse">
            <stop/>
            <stop offset="1" stop-color="#4D4D4D" stop-opacity="0"/>
        </linearGradient>
        <linearGradient id="paint1_linear_1116_12578" x1="250.55" y1="147.625" x2="250.55" y2="723.382" gradientUnits="userSpaceOnUse">
            <stop/>
            <stop offset="1" stop-color="#4D4D4D" stop-opacity="0"/>
        </linearGradient>
        <linearGradient id="paint2_linear_1116_12578" x1="64.5816" y1="0" x2="64.5816" y2="403.635" gradientUnits="userSpaceOnUse">
            <stop/>
            <stop offset="1" stop-color="#4D4D4D" stop-opacity="0"/>
        </linearGradient>
        <linearGradient id="paint3_linear_1116_12578" x1="397.066" y1="401.399" x2="397.066" y2="977.157" gradientUnits="userSpaceOnUse">
            <stop/>
            <stop offset="1" stop-color="#4D4D4D" stop-opacity="0"/>
        </linearGradient>
        <linearGradient id="paint4_linear_1116_12578" x1="64.5816" y1="0" x2="64.5816" y2="589.258" gradientUnits="userSpaceOnUse">
            <stop/>
            <stop offset="1" stop-color="#4D4D4D" stop-opacity="0"/>
        </linearGradient>
        <linearGradient id="paint5_linear_1116_12578" x1="543.584" y1="655.174" x2="543.584" y2="1230.93" gradientUnits="userSpaceOnUse">
            <stop/>
            <stop offset="1" stop-color="#4D4D4D" stop-opacity="0"/>
        </linearGradient>
    </defs>
</svg>
